<svg xmlns="http://www.w3.org/2000/svg" xmlns:xlink="http://www.w3.org/1999/xlink" width="500" zoomAndPan="magnify" viewBox="0 0 375 374.999991" height="500" preserveAspectRatio="xMidYMid meet" version="1.0"><defs><clipPath id="57006e5adb"><path d="M 43.269531 43.269531 L 331.730469 43.269531 L 331.730469 331.730469 L 43.269531 331.730469 Z M 43.269531 43.269531 " clip-rule="nonzero"/></clipPath><clipPath id="bbb351668e"><path d="M 187.5 43.269531 C 107.84375 43.269531 43.269531 107.84375 43.269531 187.5 C 43.269531 267.15625 107.84375 331.730469 187.5 331.730469 C 267.15625 331.730469 331.730469 267.15625 331.730469 187.5 C 331.730469 107.84375 267.15625 43.269531 187.5 43.269531 Z M 187.5 43.269531 " clip-rule="nonzero"/></clipPath><clipPath id="422d91f2e4"><path d="M 79.507812 121 L 280 121 L 280 280 L 79.507812 280 Z M 79.507812 121 " clip-rule="nonzero"/></clipPath><clipPath id="a2979103a0"><path d="M 224 95 L 295.507812 95 L 295.507812 171 L 224 171 Z M 224 95 " clip-rule="nonzero"/></clipPath></defs><g clip-path="url(#57006e5adb)"><g clip-path="url(#bbb351668e)"><path fill="#957fef" d="M 43.269531 43.269531 L 331.730469 43.269531 L 331.730469 331.730469 L 43.269531 331.730469 Z M 43.269531 43.269531 " fill-opacity="1" fill-rule="nonzero"/></g></g><g clip-path="url(#422d91f2e4)"><path fill="#f4f6fc" d="M 278.027344 128.863281 C 277.414062 126.09375 275.960938 123.894531 273.71875 122.269531 C 273.191406 121.917969 272.664062 121.699219 272.046875 121.609375 C 269.628906 121.214844 267.34375 121.566406 265.101562 122.707031 C 262.550781 124.027344 260.132812 125.566406 257.890625 127.371094 C 255.648438 129.128906 253.535156 130.976562 251.46875 132.953125 C 249.578125 134.757812 247.734375 136.601562 245.929688 138.492188 C 244.171875 140.339844 242.457031 142.144531 240.742188 143.988281 C 239.070312 145.835938 237.398438 147.640625 235.816406 149.53125 C 233.925781 151.683594 232.035156 153.839844 230.1875 155.992188 C 228.296875 158.191406 226.40625 160.433594 224.5625 162.675781 C 223.066406 164.480469 221.527344 166.28125 220.03125 168.085938 C 218.273438 170.195312 216.515625 172.304688 214.757812 174.417969 C 212.996094 176.484375 211.28125 178.550781 209.523438 180.660156 C 207.675781 182.859375 205.832031 185.011719 203.984375 187.167969 C 202.136719 189.277344 200.289062 191.34375 198.398438 193.410156 C 196.730469 195.214844 194.96875 197.015625 193.210938 198.777344 C 192.949219 199.039062 192.640625 199.347656 192.375 199.609375 C 190.351562 201.546875 188.15625 203.261719 185.78125 204.710938 C 184.769531 205.328125 183.671875 205.679688 182.484375 205.765625 C 180.328125 205.589844 178.21875 205.152344 176.152344 204.449219 C 173.46875 203.523438 170.785156 202.558594 168.105469 201.589844 C 165.464844 200.621094 162.785156 199.65625 160.101562 198.6875 C 157.421875 197.71875 154.695312 196.839844 152.011719 195.960938 C 149.285156 195.125 146.515625 194.511719 143.703125 194.203125 C 143.085938 194.113281 142.515625 194.203125 141.941406 194.554688 C 139.65625 195.917969 137.589844 197.589844 135.789062 199.566406 C 135.171875 200.226562 134.554688 200.886719 133.984375 201.546875 C 122.992188 214.207031 112.484375 227.3125 102.546875 240.808594 C 96.960938 248.417969 91.464844 256.15625 86.101562 263.9375 C 84.34375 266.488281 82.804688 269.125 81.484375 271.941406 C 80.386719 274.226562 79.726562 276.601562 79.507812 279.019531 C 80.386719 279.941406 82.980469 278.667969 87.246094 275.195312 C 91.511719 271.71875 96.785156 267.015625 103.03125 261.035156 C 109.273438 255.054688 114.683594 249.472656 119.300781 244.285156 C 123.871094 239.140625 128.753906 234.300781 133.984375 229.773438 C 134.863281 229.113281 135.742188 228.453125 136.710938 227.839844 C 138.425781 226.695312 140.273438 225.90625 142.25 225.464844 C 142.601562 225.378906 143 225.378906 143.351562 225.421875 C 146.164062 225.640625 148.890625 226.257812 151.574219 227.269531 C 154.121094 228.277344 156.671875 229.335938 159.179688 230.433594 C 161.640625 231.488281 164.058594 232.542969 166.523438 233.597656 C 169.070312 234.742188 171.667969 235.886719 174.261719 236.984375 C 176.898438 238.128906 179.582031 239.140625 182.308594 239.976562 C 183.097656 240.238281 183.890625 240.328125 184.726562 240.328125 C 187.230469 240.238281 189.648438 239.621094 191.890625 238.4375 C 194.265625 237.160156 196.554688 235.753906 198.796875 234.171875 C 200.464844 232.984375 202.09375 231.753906 203.675781 230.476562 C 204.160156 230.082031 204.644531 229.6875 205.125 229.289062 C 207.371094 227.445312 209.523438 225.507812 211.722656 223.53125 C 213.875 221.550781 216.03125 219.527344 218.097656 217.460938 C 220.03125 215.570312 221.96875 213.636719 223.859375 211.660156 C 225.878906 209.546875 227.902344 207.4375 229.882812 205.28125 C 231.289062 203.742188 232.652344 202.25 234.058594 200.710938 C 235.507812 199.082031 236.917969 197.5 238.324219 195.875 C 239.6875 194.289062 241.050781 192.75 242.414062 191.167969 C 244.257812 189.015625 246.105469 186.859375 247.910156 184.660156 C 249.710938 182.507812 251.46875 180.398438 253.183594 178.242188 C 254.898438 176.132812 256.570312 174.019531 258.242188 171.867188 C 259.339844 170.460938 260.441406 169.097656 261.496094 167.6875 C 262.550781 166.328125 263.605469 164.917969 264.617188 163.511719 C 266.332031 161.183594 268.046875 158.894531 269.761719 156.566406 C 271.300781 154.453125 272.839844 152.300781 274.289062 150.101562 C 274.730469 149.441406 275.214844 148.78125 275.699219 148.125 C 277.367188 145.835938 278.554688 143.417969 279.304688 140.734375 C 279.304688 139.375 279.257812 138.011719 279.214844 136.648438 C 278.996094 134.007812 278.644531 131.414062 278.027344 128.863281 Z M 278.027344 128.863281 " fill-opacity="1" fill-rule="nonzero"/></g><g clip-path="url(#a2979103a0)"><path fill="#f4f6fc" d="M 295.175781 144.472656 C 294.910156 129.566406 293.902344 113.125 292.140625 95.050781 C 279.699219 103.933594 266.597656 111.628906 252.746094 118.136719 C 243.730469 122.355469 234.453125 125.960938 224.914062 128.953125 C 224.914062 129.039062 224.867188 129.128906 224.78125 129.171875 C 224.691406 130.097656 228.648438 131.414062 236.785156 133.128906 C 244.875 134.84375 254.417969 134.710938 265.363281 132.777344 C 265.761719 133.921875 266.113281 135.109375 266.464844 136.296875 C 267.652344 140.164062 268.925781 144.035156 270.246094 147.859375 C 271.257812 150.671875 272.269531 153.445312 273.277344 156.257812 C 275.609375 162.765625 278.6875 167.03125 282.46875 169.097656 C 286.25 171.117188 289.371094 170.898438 291.878906 168.347656 C 294.339844 165.84375 295.484375 159.027344 295.308594 147.902344 C 295.308594 146.761719 295.261719 145.617188 295.175781 144.472656 Z M 295.175781 144.472656 " fill-opacity="1" fill-rule="nonzero"/></g></svg>